inDegrees=yes
name=teste_pendulo.mot
DataType=double
version=3
OpenSimVersion=4.4-2022-07-23-0e9fedc
endheader
time	q1	q2
5.496597051620483	9.03122950387789	-13.68494486998562
5.501602172851562	9.03122950387789	-13.68494486998562
5.507615089416504	9.065012235855518	-13.71388616892062
5.512606143951416	9.065012235855518	-13.71388616892062
5.516596078872681	9.094483143839001	-13.74179313147958
5.520601987838745	9.094483143839001	-13.74179313147958
5.526632070541382	9.111605964921054	-13.74722015335083
5.531599998474121	9.111605964921054	-13.74722015335083
5.53560209274292	9.111605964921054	-13.74722015335083
5.539599895477295	9.131059765648638	-13.75300213729419
5.544600248336792	9.182549405370334	-13.81380895986556
5.550601959228516	9.182549405370334	-13.81380895986556
5.5576012134552	9.182549405370334	-13.81380895986556
5.561601161956787	9.182549405370334	-13.81380895986556
5.577592134475708	9.236853306815766	-13.87332795510343
5.5816330909729	9.236853306815766	-13.87332795510343
5.58660101890564	9.247823861612028	-13.87206202724868
5.590617895126343	9.247823861612028	-13.87206202724868
5.594613075256348	9.263681826723586	-13.87422280328814
5.599601030349731	9.263681826723586	-13.87422280328814
5.611607074737549	9.263681826723586	-13.87422280328814
5.615601062774658	9.293902125775155	-13.90288233065859
5.620600938796997	9.293902125775155	-13.90288233065859
5.6246018409729	9.293902125775155	-13.90288233065859
5.629600048065186	9.312336214181043	-13.90846469370471
5.634598016738892	9.361354743164997	-13.96466903065069
5.640611886978149	9.361354743164997	-13.96466903065069
5.647603988647461	9.415210180383724	-14.02947263776518
5.651592969894409	9.436171654539649	-14.02947263737164
5.658594846725464	9.573670053187827	-14.18793251586833
5.662605047225952	9.573670053187827	-14.18793251586833
5.668598175048828	9.651387576775104	-14.26092212938139
5.672600030899048	9.651387576775104	-14.26092212938139
5.677594900131226	9.757456052625351	-14.35987010297124
5.682600975036621	9.757456052625351	-14.35987010297124
5.686600923538208	9.91288233639111	-14.51321174456927
5.691596031188965	9.91288233639111	-14.51321174456927
5.697597026824951	9.931354771902761	-14.51191506694095
5.701597929000854	9.931354771902761	-14.51191506694095
5.705593824386597	9.931354771902761	-14.51191506694095
5.710599899291992	9.931354771902761	-14.51191506694095
5.71459698677063	9.931354771902761	-14.51191506694095
5.720603942871094	9.931354771902761	-14.51191506694095
5.727612972259521	9.931354771902761	-14.51191506694095
5.735603094100952	9.931354771902761	-14.51191506694095
5.739600896835327	9.985405301596542	-14.57594345627235
5.748600244522095	9.985405301596542	-14.57594345627235
5.753602027893066	10.09922529223707	-14.69116987087362
5.757599115371704	10.09922529223707	-14.69116987087362
5.762594223022461	10.23441822075837	-14.82985313510424
5.768610954284668	10.23441822075837	-14.82985313510424
5.773593902587891	10.46365355964691	-15.06447520231008
5.780592918395996	10.46365355964691	-15.06447520231008
5.784594058990479	10.7358370610131	-15.34017477527263
5.790589094161987	11.07703077531395	-15.681368527032
5.795614957809448	11.06315264372029	-15.69524668437898
5.79960823059082	11.34805466989033	-15.98749098280357
5.80459189414978	11.33791711410602	-15.99762855520978
5.810590028762817	11.56369806789853	-16.22877090356157
5.816606998443604	11.54207919123234	-16.25038979522727
5.820595026016235	11.87753273208056	-16.59726639066017
5.826591014862061	11.85596744297059	-16.61883169528501
5.830610036849976	12.13852791697098	-16.91275736966787
5.837598085403442	12.11311048559356	-16.93817481476521
5.842600107192993	12.10908665233558	-16.97315245804809
5.846594095230103	12.48542580932766	-17.35900759941609
5.851593017578125	12.46357281733657	-17.38086060968923
5.857621192932129	12.48542726784134	-17.54998519732898
5.862593173980713	12.97314771701747	-18.03770834412055
5.869595050811768	13.60821161989243	-18.67277235751744
5.874594211578369	14.4180860822877	-19.48264700559016
5.88158917427063	15.51146904952102	-20.57603043852965
5.886590957641602	15.51147359864993	-20.97870577121811
5.891587257385254	16.7810178270697	-22.24825898510405
5.899642944335938	16.78102145884087	-22.60483871205467
5.90558910369873	17.96748173067401	-23.79130687248824
5.910584926605225	17.96748843028804	-24.39662093632651
5.914618968963623	19.23516887918301	-25.66431388551064
5.918590068817139	19.23517476854403	-26.21873376033205
5.924589872360229	19.91903259401386	-26.90260212098275
5.928589820861816	19.91903616746578	-27.19689548488827
5.933586120605469	21.14072404851473	-28.4185900862667
5.93862509727478	21.10139775901378	-28.45791612052096
5.94359302520752	21.82092581277857	-29.19783131586669
5.947646141052246	21.82092862512327	-29.4341848941603
5.952587127685547	22.39526907903856	-30.00853002470859
5.958585977554321	22.39527111601025	-30.17143223652415
5.964592933654785	22.97310006637394	-30.74926450699942
5.96958589553833	22.97310682310896	-31.31367261495917
5.973584890365601	23.5487781015996	-31.88935444775182
5.977586984634399	23.54878300554779	-32.29491090808793
